<svg width="282" height="51" viewBox="0 0 282 51" fill="none" xmlns="http://www.w3.org/2000/svg">
<path d="M38.822 50L38.7 27.369L27.72 45.791H22.352L11.433 27.979V50H0.27V7.3H10.213L25.219 31.944L39.859 7.3H49.802L49.924 50H38.822ZM74.5132 50.549C70.9752 50.549 67.7829 49.817 64.9362 48.353C62.0895 46.889 59.8529 44.8557 58.2262 42.253C56.6402 39.6503 55.8472 36.702 55.8472 33.408C55.8472 30.1547 56.6402 27.2267 58.2262 24.624C59.8529 22.0213 62.0692 20.0083 64.8752 18.585C67.7219 17.121 70.9345 16.389 74.5132 16.389C78.0919 16.389 81.3045 17.121 84.1512 18.585C86.9979 20.0083 89.2142 22.0213 90.8002 24.624C92.3862 27.186 93.1792 30.114 93.1792 33.408C93.1792 36.702 92.3862 39.6503 90.8002 42.253C89.2142 44.8557 86.9979 46.889 84.1512 48.353C81.3045 49.817 78.0919 50.549 74.5132 50.549ZM74.5132 41.338C76.5465 41.338 78.2139 40.6467 79.5152 39.264C80.8165 37.8407 81.4672 35.8887 81.4672 33.408C81.4672 30.968 80.8165 29.0567 79.5152 27.674C78.2139 26.2913 76.5465 25.6 74.5132 25.6C72.4799 25.6 70.8125 26.2913 69.5112 27.674C68.2099 29.0567 67.5592 30.968 67.5592 33.408C67.5592 35.8887 68.2099 37.8407 69.5112 39.264C70.8125 40.6467 72.4799 41.338 74.5132 41.338ZM132.486 16.938L118.822 50H106.866L93.2626 16.938H105.158L113.088 37.129L121.445 16.938H132.486ZM135.482 16.938H147.072V50H135.482V16.938ZM141.277 13.278C139.162 13.278 137.454 12.6883 136.153 11.509C134.851 10.3297 134.201 8.86567 134.201 7.117C134.201 5.36833 134.851 3.90433 136.153 2.725C137.454 1.54567 139.162 0.955999 141.277 0.955999C143.391 0.955999 145.099 1.52533 146.401 2.664C147.702 3.762 148.353 5.18533 148.353 6.934C148.353 8.764 147.702 10.289 146.401 11.509C145.099 12.6883 143.391 13.278 141.277 13.278ZM188.398 33.53C188.398 33.6113 188.337 34.567 188.215 36.397H164.181C164.669 38.105 165.604 39.4267 166.987 40.362C168.41 41.2567 170.179 41.704 172.294 41.704C173.88 41.704 175.242 41.4803 176.381 41.033C177.56 40.5857 178.739 39.8537 179.919 38.837L186.019 45.181C182.806 48.7597 178.109 50.549 171.928 50.549C168.064 50.549 164.669 49.817 161.741 48.353C158.813 46.889 156.535 44.8557 154.909 42.253C153.323 39.6503 152.53 36.702 152.53 33.408C152.53 30.1547 153.302 27.247 154.848 24.685C156.434 22.0823 158.609 20.049 161.375 18.585C164.14 17.121 167.251 16.389 170.708 16.389C174.002 16.389 176.991 17.0803 179.675 18.463C182.359 19.805 184.473 21.7773 186.019 24.38C187.605 26.942 188.398 29.992 188.398 33.53ZM170.769 24.624C168.979 24.624 167.475 25.1323 166.255 26.149C165.075 27.1657 164.323 28.5483 163.998 30.297H177.54C177.214 28.5483 176.442 27.1657 175.222 26.149C174.042 25.1323 172.558 24.624 170.769 24.624ZM194.291 7.3H214.482C219.158 7.3 223.306 8.17433 226.926 9.923C230.545 11.6717 233.351 14.1523 235.344 17.365C237.336 20.5777 238.333 24.3393 238.333 28.65C238.333 32.9607 237.336 36.7223 235.344 39.935C233.351 43.1477 230.545 45.6283 226.926 47.377C223.306 49.1257 219.158 50 214.482 50H194.291V7.3ZM213.994 40.362C217.654 40.362 220.582 39.325 222.778 37.251C225.014 35.177 226.133 32.31 226.133 28.65C226.133 24.99 225.014 22.123 222.778 20.049C220.582 17.975 217.654 16.938 213.994 16.938H206.369V40.362H213.994ZM264.939 16.389C267.948 16.389 270.673 17.0803 273.113 18.463C275.594 19.8457 277.546 21.8383 278.969 24.441C280.433 27.003 281.165 29.992 281.165 33.408C281.165 36.824 280.433 39.8333 278.969 42.436C277.546 45.0387 275.594 47.0517 273.113 48.475C270.673 49.8577 267.948 50.549 264.939 50.549C260.588 50.549 257.334 49.268 255.179 46.706V50H244.138V4.738H255.728V19.805C257.965 17.5277 261.035 16.389 264.939 16.389ZM262.499 41.338C264.532 41.338 266.2 40.6467 267.501 39.264C268.802 37.8407 269.453 35.8887 269.453 33.408C269.453 30.968 268.802 29.0567 267.501 27.674C266.2 26.2913 264.532 25.6 262.499 25.6C260.466 25.6 258.798 26.2913 257.497 27.674C256.196 29.0567 255.545 30.968 255.545 33.408C255.545 35.8887 256.196 37.8407 257.497 39.264C258.798 40.6467 260.466 41.338 262.499 41.338Z" fill="black"/>
</svg>
